<?xml version="1.0" encoding="UTF-8"?>
<svg xmlns="http://www.w3.org/2000/svg" xmlns:xlink="http://www.w3.org/1999/xlink" width="172px" height="25px" viewBox="0 0 174 25" version="1.1">
<g id="surface1">
<path style=" stroke:none;fill-rule:nonzero;fill:rgb(0%,0%,0%);fill-opacity:1;" d="M 50.75 0.691406 C 47.632812 1.707031 44.660156 4.25 43.101562 7.265625 C 42.375 8.648438 42.230469 9.449219 42.230469 12.355469 C 42.230469 15.226562 42.375 16.097656 43.066406 17.476562 C 44.40625 20.167969 46.21875 22.019531 48.757812 23.292969 C 50.929688 24.347656 51.257812 24.417969 54.449219 24.273438 C 57.09375 24.199219 58.179688 23.984375 59.449219 23.328125 C 61.660156 22.164062 63.65625 20.167969 64.816406 17.988281 C 65.683594 16.386719 65.792969 15.769531 65.792969 12.535156 C 65.792969 9.410156 65.683594 8.648438 64.921875 7.085938 C 63.765625 4.761719 61.550781 2.578125 59.269531 1.488281 C 57.3125 0.546875 52.527344 0.109375 50.75 0.691406 Z M 58.652344 6.503906 L 58.761719 9.921875 L 57.382812 9.664062 C 56.621094 9.558594 55.789062 9.449219 55.570312 9.449219 C 55.207031 9.449219 55.101562 8.539062 55.101562 6.140625 L 55.101562 2.871094 L 56.839844 2.980469 L 58.542969 3.089844 Z M 54.230469 5.960938 C 54.339844 6.433594 54.375 7.339844 54.300781 8.03125 C 54.195312 9.191406 54.085938 9.265625 52.5625 9.484375 C 51.65625 9.628906 50.824219 9.664062 50.675781 9.558594 C 50.316406 9.375 50.277344 5.667969 50.640625 5.339844 C 50.75 5.195312 51.582031 5.085938 52.417969 5.085938 C 53.757812 5.085938 54.011719 5.195312 54.230469 5.960938 Z M 49.664062 8.210938 C 49.664062 9.046875 49.445312 9.738281 49.046875 10.027344 C 48.464844 10.464844 48.539062 10.5 49.664062 10.285156 C 52.308594 9.738281 61.335938 10.175781 62.675781 10.863281 C 63.800781 11.484375 64.164062 12.464844 64.164062 14.933594 C 64.164062 16.789062 64.015625 17.371094 63.363281 18.058594 C 62.929688 18.53125 62.351562 18.894531 62.058594 18.894531 C 61.734375 18.894531 61.226562 19.113281 60.9375 19.402344 C 60.320312 19.949219 56.585938 20.710938 54.484375 20.710938 C 53.648438 20.710938 53.289062 20.53125 53.289062 20.167969 C 53.289062 19.730469 53.140625 19.695312 52.597656 20.023438 C 51.765625 20.566406 47.996094 19.914062 45.929688 18.859375 C 44.40625 18.058594 43.863281 17.003906 43.863281 14.898438 C 43.863281 13.410156 45.277344 11.265625 46.253906 11.265625 C 46.546875 11.265625 46.761719 11.082031 46.761719 10.902344 C 46.761719 10.683594 46.617188 10.539062 46.398438 10.539062 C 46.21875 10.539062 46.039062 9.703125 46.039062 8.722656 L 46.039062 6.902344 L 49.664062 6.902344 Z M 49.664062 8.210938 "/>
<path style=" stroke:none;fill-rule:nonzero;fill:rgb(0%,0%,0%);fill-opacity:1;" d="M 50.023438 11.15625 C 48.210938 11.445312 45.710938 12.390625 45.277344 12.972656 C 44.878906 13.445312 44.949219 13.664062 45.746094 14.351562 C 46.726562 15.1875 49.515625 15.988281 51.402344 15.988281 C 52.488281 15.988281 53.648438 14.5 53.648438 13.152344 C 53.648438 12.574219 54.046875 12.316406 55.460938 11.953125 C 56.441406 11.699219 57.167969 11.375 57.058594 11.191406 C 56.875 10.902344 51.730469 10.863281 50.023438 11.15625 Z M 50.023438 11.15625 "/>
<path style=" stroke:none;fill-rule:nonzero;fill:rgb(0%,0%,0%);fill-opacity:1;" d="M 59.160156 11.808594 C 56.261719 12.71875 56.222656 12.789062 58.542969 13.300781 C 59.738281 13.554688 61.191406 13.773438 61.734375 13.808594 C 63.109375 13.808594 63.4375 12.789062 62.386719 11.917969 C 61.40625 11.15625 61.226562 11.15625 59.160156 11.808594 Z M 59.160156 11.808594 "/>
<path style=" stroke:none;fill-rule:nonzero;fill:rgb(0%,0%,0%);fill-opacity:1;" d="M 54.738281 14.136719 C 54.738281 14.714844 55.136719 14.933594 56.839844 15.261719 C 60.753906 16.0625 61.046875 16.171875 61.296875 17.113281 C 61.515625 17.804688 61.550781 17.660156 61.589844 16.460938 C 61.625 14.789062 61.734375 14.863281 58.179688 14.171875 C 56.984375 13.953125 55.714844 13.664062 55.390625 13.589844 C 54.917969 13.445312 54.738281 13.589844 54.738281 14.136719 Z M 54.738281 14.136719 "/>
<path style=" stroke:none;fill-rule:nonzero;fill:rgb(0%,0%,0%);fill-opacity:1;" d="M 54.59375 16.570312 C 54.410156 17.078125 54.554688 17.152344 55.5 16.933594 C 56.113281 16.824219 56.984375 16.679688 57.421875 16.679688 C 57.964844 16.640625 57.890625 16.570312 57.09375 16.351562 C 55.355469 15.914062 54.847656 15.953125 54.59375 16.570312 Z M 54.59375 16.570312 "/>
<path style=" stroke:none;fill-rule:nonzero;fill:rgb(0%,0%,0%);fill-opacity:1;" d="M 117.050781 1.234375 C 115.128906 1.925781 113.28125 3.160156 112.195312 4.433594 C 111.179688 5.632812 109.835938 8.066406 109.835938 8.722656 C 109.835938 8.9375 110.742188 9.085938 111.976562 9.085938 C 114.042969 9.085938 114.152344 9.046875 114.914062 7.8125 C 117.234375 4.035156 121.328125 3.34375 125.28125 6.03125 L 126.621094 6.976562 L 127.925781 5.632812 L 129.230469 4.324219 L 127.960938 3.234375 C 125.316406 0.980469 120.3125 0.0742188 117.050781 1.234375 Z M 117.050781 1.234375 "/>
<path style=" stroke:none;fill-rule:nonzero;fill:rgb(0%,0%,0%);fill-opacity:1;" d="M 160.878906 1.054688 C 158.015625 1.636719 155.910156 3.960938 155.65625 6.976562 C 155.332031 10.5 157.507812 12.898438 162.039062 13.988281 C 166.859375 15.152344 167.582031 15.40625 168.597656 16.277344 C 170.339844 17.734375 169.867188 19.621094 167.582031 20.386719 C 165.878906 20.929688 165.664062 21.222656 165.664062 23.183594 L 165.664062 24.746094 L 167.402344 24.492188 C 169.648438 24.199219 171.789062 23 172.804688 21.476562 C 173.457031 20.53125 173.636719 19.730469 173.636719 18.023438 C 173.636719 13.699219 171.355469 11.589844 165.371094 10.320312 C 161.820312 9.558594 160.078125 8.574219 159.933594 7.195312 C 159.789062 6.066406 160.804688 5.234375 162.691406 4.871094 C 163.8125 4.652344 163.851562 4.578125 163.851562 2.6875 C 163.851562 0.507812 163.8125 0.507812 160.878906 1.054688 Z M 160.878906 1.054688 "/>
<path style=" stroke:none;fill-rule:nonzero;fill:rgb(0%,0%,0%);fill-opacity:1;" d="M 1.339844 2.507812 L 2.464844 4.035156 L 6.015625 4.105469 C 8.589844 4.179688 9.933594 4.359375 10.765625 4.832031 C 12.867188 5.960938 13.230469 9.558594 11.382812 11.300781 C 10.402344 12.210938 7.722656 12.683594 3.007812 12.683594 L 0.363281 12.71875 L 0.363281 24.347656 L 4.351562 24.347656 L 4.351562 15.699219 L 7.902344 15.550781 C 12.144531 15.40625 14.390625 14.5 15.660156 12.425781 C 16.347656 11.300781 16.492188 10.574219 16.492188 8.175781 C 16.492188 4.761719 15.769531 3.414062 13.304688 2.109375 C 11.960938 1.417969 11.019531 1.308594 6.015625 1.164062 L 0.21875 1.015625 Z M 1.339844 2.507812 "/>
<path style=" stroke:none;fill-rule:nonzero;fill:rgb(0%,0%,0%);fill-opacity:1;" d="M 22.835938 2.726562 C 24.140625 4.070312 24.648438 4.359375 25.339844 4.179688 C 25.808594 4.035156 27.296875 4.070312 28.601562 4.214844 C 31.539062 4.503906 32.988281 5.703125 32.988281 7.777344 C 32.988281 11.191406 31.539062 11.992188 25.230469 11.992188 L 20.664062 11.992188 L 20.664062 14.898438 L 27.222656 14.898438 L 30.269531 19.621094 L 33.351562 24.347656 L 38.0625 24.347656 L 37.082031 22.785156 C 36.578125 21.949219 35.269531 19.914062 34.183594 18.242188 C 33.132812 16.605469 32.261719 15.117188 32.261719 14.933594 C 32.261719 14.789062 32.914062 14.351562 33.75 13.988281 C 36.03125 12.9375 36.976562 11.265625 36.976562 8.25 C 36.976562 4.976562 36.070312 3.234375 33.75 2.109375 C 32.296875 1.378906 31.355469 1.273438 26.644531 1.164062 L 21.207031 1.015625 Z M 22.835938 2.726562 "/>
<path style=" stroke:none;fill-rule:nonzero;fill:rgb(0%,0%,0%);fill-opacity:1;" d="M 70.542969 1.890625 C 70.90625 2.363281 71.628906 3.160156 72.101562 3.707031 L 73.007812 4.722656 L 85.914062 4.722656 L 85.914062 1.089844 L 69.855469 1.089844 Z M 70.542969 1.890625 "/>
<path style=" stroke:none;fill-rule:nonzero;fill:rgb(0%,0%,0%);fill-opacity:1;" d="M 91.242188 2.90625 L 92.617188 4.6875 L 99.253906 4.722656 L 105.851562 4.722656 L 105.851562 1.089844 L 89.863281 1.089844 Z M 91.242188 2.90625 "/>
<path style=" stroke:none;fill-rule:nonzero;fill:rgb(0%,0%,0%);fill-opacity:1;" d="M 133.039062 9.300781 C 133.039062 18.3125 133.21875 19.550781 134.957031 21.65625 C 136.625 23.691406 138.402344 24.347656 142.390625 24.347656 C 145.253906 24.347656 146.015625 24.199219 147.539062 23.4375 C 149.496094 22.457031 150.980469 20.566406 151.378906 18.605469 L 151.632812 17.441406 L 149.75 17.441406 C 148.007812 17.441406 147.792969 17.550781 146.339844 19.078125 C 144.820312 20.640625 144.671875 20.710938 142.679688 20.710938 C 140.140625 20.710938 138.730469 19.984375 137.859375 18.167969 C 137.316406 17.113281 137.171875 15.660156 137.097656 8.976562 L 136.988281 1.089844 L 133.039062 1.089844 Z M 133.039062 9.300781 "/>
<path style=" stroke:none;fill-rule:nonzero;fill:rgb(0%,0%,0%);fill-opacity:1;" d="M 69.960938 17.988281 L 69.960938 24.347656 L 73.949219 24.347656 L 73.949219 14.898438 L 84.824219 14.898438 L 84.824219 11.628906 L 69.960938 11.628906 Z M 69.960938 17.988281 "/>
<path style=" stroke:none;fill-rule:nonzero;fill:rgb(0%,0%,0%);fill-opacity:1;" d="M 89.539062 17.988281 L 89.539062 24.347656 L 93.886719 24.347656 L 93.886719 14.898438 L 104.761719 14.898438 L 104.761719 11.628906 L 89.539062 11.628906 Z M 89.539062 17.988281 "/>
<path style=" stroke:none;fill-rule:nonzero;fill:rgb(0%,0%,0%);fill-opacity:1;" d="M 110.199219 17.550781 C 110.199219 18.242188 112.375 21.222656 113.535156 22.128906 C 115.566406 23.765625 117.484375 24.347656 120.75 24.347656 C 123.503906 24.347656 124.121094 24.199219 126.042969 23.253906 C 129.304688 21.621094 129.484375 21.257812 127.746094 19.804688 L 126.332031 18.605469 L 125.390625 19.296875 C 123.902344 20.347656 122.488281 20.785156 120.640625 20.75 C 118.574219 20.75 117.195312 20.09375 115.710938 18.386719 C 114.660156 17.152344 114.441406 17.078125 112.375 17.078125 C 110.816406 17.078125 110.199219 17.222656 110.199219 17.550781 Z M 110.199219 17.550781 "/>
</g>
</svg>
