<?xml version="1.0" encoding="UTF-8"?>
<svg xmlns="http://www.w3.org/2000/svg" xmlns:xlink="http://www.w3.org/1999/xlink" width="172px" height="25px" viewBox="0 0 173 25" version="1.1">
<g id="surface1">
<path style=" stroke:none;fill-rule:evenodd;fill:rgb(89.019608%,42.745098%,50.588238%);fill-opacity:1;" d="M 49.695312 0.480469 C 46.265625 1.765625 43.390625 4.597656 42.144531 7.917969 C 41.519531 9.589844 41.40625 10.527344 41.53125 13.042969 C 41.761719 17.796875 43.816406 21.269531 47.640625 23.378906 C 49.328125 24.308594 50 24.449219 53.269531 24.578125 C 56.839844 24.714844 57.0625 24.679688 59.285156 23.578125 C 62.09375 22.191406 64.203125 19.890625 65.257812 17.082031 C 66.316406 14.253906 66.140625 9.3125 64.890625 6.804688 C 63.746094 4.511719 61.644531 2.378906 59.363281 1.199219 C 57.824219 0.402344 56.90625 0.207031 54.242188 0.109375 C 52.128906 0.03125 50.546875 0.160156 49.695312 0.480469 M 50.457031 0.679688 C 47.484375 1.65625 44.40625 4.269531 42.949219 7.050781 C 42.105469 8.65625 41.992188 9.289062 41.996094 12.320312 C 42 15.171875 42.140625 16.046875 42.824219 17.441406 C 44.03125 19.890625 45.792969 21.796875 47.984375 23.019531 C 49.785156 24.019531 50.179688 24.09375 53.703125 24.09375 C 57.011719 24.09375 57.703125 23.980469 59.222656 23.203125 C 61.226562 22.175781 63.375 19.964844 64.578125 17.699219 C 65.292969 16.351562 65.414062 15.597656 65.414062 12.5 C 65.414062 8.238281 64.785156 6.566406 62.171875 3.898438 C 59.855469 1.535156 57.75 0.632812 54.242188 0.496094 C 52.65625 0.433594 50.953125 0.515625 50.457031 0.679688 M 115.453125 1.121094 C 113.117188 2.023438 110.941406 4.003906 109.757812 6.304688 C 108.28125 9.175781 108.410156 9.421875 111.359375 9.421875 C 113.757812 9.421875 113.898438 9.375 114.40625 8.386719 C 115.09375 7.046875 117.257812 5.148438 118.425781 4.851562 C 120.007812 4.453125 122.246094 4.976562 123.875 6.132812 C 124.738281 6.746094 125.570312 7.246094 125.722656 7.246094 C 126.15625 7.246094 128.667969 4.546875 128.667969 4.078125 C 128.667969 3.441406 125.542969 1.414062 123.699219 0.855469 C 121.347656 0.144531 117.671875 0.261719 115.453125 1.121094 M 159.84375 0.699219 C 155.996094 1.644531 153.929688 4.566406 154.382812 8.429688 C 154.5 9.421875 154.847656 10.621094 155.152344 11.09375 C 156.078125 12.515625 159.082031 13.960938 162.871094 14.8125 C 166.65625 15.660156 168.316406 16.664062 168.316406 18.105469 C 168.316406 18.890625 166.441406 20.285156 165.382812 20.289062 C 164.695312 20.289062 164.363281 21.3125 164.355469 23.460938 C 164.347656 25.214844 164.503906 25.269531 167.558594 24.613281 C 169.769531 24.132812 172.167969 22.449219 172.542969 21.109375 C 172.777344 20.265625 172.851562 20.453125 173.03125 22.28125 C 173.144531 23.476562 173.238281 21.601562 173.242188 18.117188 C 173.242188 14.628906 173.148438 12.671875 173.03125 13.769531 C 172.855469 15.425781 172.773438 15.601562 172.554688 14.8125 C 171.929688 12.574219 168.816406 10.753906 163.980469 9.796875 C 161.816406 9.367188 159.765625 8.292969 159.429688 7.410156 C 159.105469 6.566406 160.347656 5.449219 161.886719 5.203125 L 163.269531 4.980469 L 163.269531 0.363281 L 162.097656 0.398438 C 161.453125 0.421875 160.441406 0.554688 159.84375 0.699219 M 0 1.054688 C 0 1.289062 0.515625 2.164062 1.144531 3.003906 L 2.285156 4.527344 L 5.984375 4.527344 C 9.152344 4.527344 9.820312 4.636719 10.671875 5.277344 C 12.007812 6.277344 12.390625 7.5625 11.902344 9.394531 C 11.320312 11.566406 10.578125 11.878906 5.039062 12.285156 L 0.179688 12.636719 L 5.144531 12.480469 C 10.890625 12.300781 11.660156 11.996094 12.285156 9.667969 C 12.804688 7.734375 12.21875 5.664062 10.910156 4.804688 C 10.167969 4.316406 9.15625 4.175781 6.304688 4.171875 L 2.652344 4.167969 L 1.460938 2.582031 L 0.269531 1 L 5.992188 1.144531 C 11.246094 1.28125 11.847656 1.367188 13.335938 2.1875 C 17.039062 4.226562 17.765625 10.125 14.703125 13.300781 C 13.214844 14.84375 10.777344 15.578125 7.144531 15.578125 L 4.324219 15.578125 L 4.324219 24.238281 L 2.253906 24.371094 L 0.179688 24.5 L 2.433594 24.570312 L 4.683594 24.636719 L 4.683594 16.039062 L 8.199219 15.867188 C 14.5 15.554688 16.941406 13.359375 16.941406 7.992188 C 16.941406 5.140625 15.8125 2.988281 13.710938 1.832031 C 12.230469 1.019531 11.625 0.9375 6.050781 0.789062 C 1.582031 0.671875 0 0.742188 0 1.054688 M 20.902344 1.210938 C 20.902344 1.480469 21.714844 2.386719 22.707031 3.226562 C 24.046875 4.363281 24.707031 4.695312 25.257812 4.519531 C 25.667969 4.390625 26.996094 4.398438 28.210938 4.539062 C 30.882812 4.851562 32.4375 6.113281 32.4375 7.96875 C 32.4375 10.917969 31.03125 11.59375 24.886719 11.59375 L 20.183594 11.59375 L 20.183594 15.21875 L 26.6875 15.21875 L 29.773438 19.925781 L 32.863281 24.636719 L 35.535156 24.636719 C 37.070312 24.636719 38.203125 24.484375 38.203125 24.277344 C 38.203125 24.078125 36.921875 21.917969 35.359375 19.476562 L 32.511719 15.035156 L 33.644531 14.433594 C 34.269531 14.105469 35.265625 13.320312 35.863281 12.691406 C 36.855469 11.640625 36.953125 11.300781 37.066406 8.539062 C 37.210938 5.097656 36.765625 3.851562 34.863281 2.394531 C 33.195312 1.113281 31.144531 0.742188 25.679688 0.734375 C 21.917969 0.726562 20.902344 0.828125 20.902344 1.210938 M 77.398438 0.996094 L 85.417969 1.101562 L 85.417969 4.710938 L 72.492188 4.710938 L 71.15625 3.070312 C 70.421875 2.167969 69.738281 1.511719 69.636719 1.613281 C 69.539062 1.710938 70.058594 2.53125 70.796875 3.433594 L 72.132812 5.074219 L 85.777344 5.074219 L 85.777344 0.726562 L 69.378906 0.890625 L 77.398438 0.996094 M 89.023438 1.128906 C 89.023438 1.347656 89.6875 2.328125 90.5 3.300781 L 91.972656 5.074219 L 105.601562 5.074219 L 105.601562 0.726562 L 97.3125 0.726562 C 91.472656 0.726562 89.023438 0.84375 89.023438 1.128906 M 116.371094 1.226562 C 114.484375 1.902344 112.617188 3.136719 111.546875 4.417969 C 110.550781 5.605469 109.207031 8.058594 109.207031 8.679688 C 109.207031 8.898438 110.089844 9.058594 111.300781 9.058594 C 113.371094 9.058594 113.40625 9.039062 114.535156 7.425781 C 115.167969 6.527344 116.210938 5.46875 116.859375 5.074219 C 118.878906 3.835938 122.1875 4.234375 124.5625 6.007812 L 125.679688 6.839844 L 128.34375 4.097656 L 127.023438 3.085938 C 124.167969 0.894531 119.539062 0.0859375 116.371094 1.226562 M 131.980469 9.875 C 132.089844 18.859375 132.109375 19.050781 132.992188 20.636719 C 133.488281 21.523438 134.597656 22.746094 135.457031 23.355469 C 136.929688 24.394531 137.242188 24.464844 140.972656 24.578125 C 144.636719 24.695312 145.070312 24.632812 146.84375 23.761719 C 149.050781 22.675781 150.632812 20.605469 150.921875 18.421875 L 151.109375 17.027344 L 148.738281 17.027344 C 146.515625 17.027344 146.332031 17.09375 145.761719 18.066406 C 144.523438 20.171875 141.433594 20.949219 139.109375 19.738281 C 137.003906 18.644531 136.789062 17.6875 136.664062 8.785156 L 136.546875 0.726562 L 131.867188 0.726562 L 131.980469 9.875 M 159.867188 1.132812 C 157.117188 1.78125 154.644531 4.664062 154.628906 7.246094 C 154.605469 10.910156 156.8125 12.949219 162.121094 14.164062 C 164.042969 14.601562 166.21875 15.265625 166.957031 15.636719 C 169.359375 16.84375 169.175781 19.472656 166.625 20.304688 C 164.921875 20.863281 164.722656 21.160156 164.714844 23.128906 L 164.710938 24.703125 L 166.242188 24.460938 C 168.347656 24.128906 170.835938 22.847656 171.703125 21.644531 C 172.191406 20.96875 172.472656 19.886719 172.574219 18.304688 C 172.703125 16.292969 172.59375 15.746094 171.808594 14.394531 C 170.652344 12.414062 168.378906 11.140625 164.605469 10.367188 C 160.644531 9.554688 158.945312 8.5625 158.945312 7.066406 C 158.945312 5.992188 160.019531 5.085938 161.601562 4.828125 L 162.910156 4.613281 L 162.910156 2.671875 C 162.910156 0.496094 162.800781 0.441406 159.867188 1.132812 M 22.878906 2.703125 C 23.863281 3.574219 24.808594 4.203125 24.980469 4.097656 C 25.148438 3.992188 26.519531 4.023438 28.027344 4.164062 C 30.367188 4.382812 30.914062 4.570312 31.78125 5.445312 C 32.867188 6.535156 33.113281 8.175781 32.453125 9.921875 C 31.832031 11.558594 30.429688 11.957031 25.246094 11.957031 L 20.542969 11.957031 L 20.542969 14.855469 L 27.054688 14.855469 L 30.121094 19.566406 L 33.1875 24.273438 L 37.851562 24.273438 L 36.996094 22.917969 C 36.527344 22.167969 35.15625 20.019531 33.953125 18.136719 L 31.765625 14.71875 L 33.09375 14.105469 C 33.824219 13.773438 34.902344 12.980469 35.488281 12.351562 C 36.421875 11.355469 36.578125 10.882812 36.703125 8.675781 C 36.871094 5.703125 36.429688 4.40625 34.765625 2.933594 C 33.1875 1.542969 30.867188 1.082031 25.480469 1.101562 L 21.085938 1.113281 L 22.878906 2.703125 M 89.949219 1.902344 C 90.320312 2.351562 91.023438 3.164062 91.511719 3.714844 L 92.402344 4.710938 L 105.242188 4.710938 L 105.242188 1.085938 L 89.273438 1.085938 L 89.949219 1.902344 M 132.273438 9.289062 C 132.273438 18.1875 132.46875 19.484375 134.125 21.503906 C 135.800781 23.550781 137.734375 24.273438 141.507812 24.273438 C 144.28125 24.273438 145.019531 24.140625 146.644531 23.324219 C 148.6875 22.300781 150.117188 20.539062 150.511719 18.5625 L 150.746094 17.390625 L 148.738281 17.390625 C 146.910156 17.390625 146.675781 17.484375 146.121094 18.429688 C 145.234375 19.933594 143.796875 20.652344 141.660156 20.652344 C 139.378906 20.652344 137.890625 19.917969 137.054688 18.382812 C 136.511719 17.382812 136.402344 16.027344 136.304688 9.148438 L 136.1875 1.085938 L 132.273438 1.085938 L 132.273438 9.289062 M 54.785156 6.140625 C 54.785156 8.519531 54.90625 9.421875 55.234375 9.425781 C 55.480469 9.425781 56.300781 9.53125 57.050781 9.65625 L 58.414062 9.882812 L 58.3125 6.480469 L 58.207031 3.078125 L 54.785156 2.859375 L 54.785156 6.140625 M 55.144531 6.09375 L 55.144531 8.96875 L 56.269531 9.195312 C 56.890625 9.320312 57.542969 9.421875 57.726562 9.421875 C 57.90625 9.421875 58.007812 8.074219 57.953125 6.429688 L 57.847656 3.441406 L 56.496094 3.328125 L 55.144531 3.21875 L 55.144531 6.09375 M 50.355469 5.296875 C 50.011719 5.640625 50.023438 9.339844 50.367188 9.519531 C 50.515625 9.597656 51.417969 9.589844 52.367188 9.503906 L 54.097656 9.34375 L 53.988281 7.300781 L 53.882812 5.253906 L 52.246094 5.144531 C 51.347656 5.085938 50.496094 5.15625 50.355469 5.296875 M 50.457031 7.226562 L 50.457031 9.058594 L 53.742188 9.058594 L 53.632812 7.335938 L 53.523438 5.617188 L 51.988281 5.503906 L 50.457031 5.394531 L 50.457031 7.226562 M 45.832031 9.046875 C 45.9375 10.953125 45.863281 11.257812 45.183594 11.621094 C 44.1875 12.15625 43.609375 13.457031 43.617188 15.144531 C 43.628906 18.007812 45.144531 19.210938 49.753906 20.003906 C 51.929688 20.378906 52.351562 20.367188 52.636719 19.914062 C 52.914062 19.472656 52.972656 19.488281 52.976562 20.019531 C 52.980469 20.492188 53.277344 20.652344 54.152344 20.648438 C 56.253906 20.644531 59.988281 19.894531 60.574219 19.363281 C 60.890625 19.074219 61.386719 18.839844 61.683594 18.839844 C 61.976562 18.839844 62.570312 18.507812 63.003906 18.101562 C 63.660156 17.488281 63.792969 16.964844 63.792969 15 C 63.792969 12.414062 63.453125 11.460938 62.304688 10.84375 C 61.347656 10.328125 56.703125 9.957031 52.082031 10.027344 C 50.097656 10.058594 48.679688 10 48.925781 9.902344 C 49.179688 9.800781 49.378906 9.101562 49.378906 8.304688 L 49.378906 6.882812 L 45.707031 6.882812 L 45.832031 9.046875 M 46.132812 8.847656 C 46.132812 11.277344 46.339844 11.589844 47.6875 11.199219 C 48.316406 11.019531 49.238281 10.890625 49.734375 10.917969 L 50.636719 10.96875 L 49.738281 11.121094 C 47.953125 11.421875 45.457031 12.371094 45 12.921875 C 44.605469 13.402344 44.683594 13.617188 45.496094 14.320312 C 46.445312 15.140625 49.21875 15.941406 51.121094 15.941406 C 52.183594 15.941406 53.339844 14.472656 53.339844 13.125 C 53.339844 12.59375 53.742188 12.300781 54.933594 11.964844 C 55.8125 11.71875 56.683594 11.613281 56.875 11.730469 C 57.066406 11.851562 57.851562 11.714844 58.617188 11.433594 C 59.382812 11.152344 59.746094 10.910156 59.421875 10.894531 C 59.101562 10.882812 58.304688 10.761719 57.65625 10.632812 C 56.976562 10.496094 56.558594 10.535156 56.675781 10.722656 C 56.992188 11.238281 49.03125 10.671875 48.535156 10.140625 C 48.214844 9.796875 48.222656 9.652344 48.566406 9.527344 C 48.8125 9.433594 49.015625 8.882812 49.015625 8.304688 C 49.015625 7.3125 48.925781 7.246094 47.574219 7.246094 L 46.132812 7.246094 L 46.132812 8.847656 M 52.710938 10.40625 C 53.257812 10.488281 54.148438 10.488281 54.691406 10.40625 C 55.238281 10.320312 54.792969 10.253906 53.703125 10.253906 C 52.613281 10.253906 52.164062 10.320312 52.710938 10.40625 M 58.476562 11.871094 C 57.4375 12.175781 56.585938 12.539062 56.585938 12.683594 C 56.585938 12.972656 60.199219 13.769531 61.523438 13.769531 C 62.742188 13.769531 63.015625 12.71875 62.011719 11.898438 C 61.066406 11.128906 61.003906 11.128906 58.476562 11.871094 M 69.199219 17.933594 L 69.199219 24.636719 L 73.886719 24.636719 L 73.886719 15.21875 L 84.699219 15.21875 L 84.699219 11.230469 L 69.199219 11.230469 L 69.199219 17.933594 M 88.664062 17.933594 L 88.664062 24.636719 L 93.707031 24.636719 L 93.707031 15.21875 L 104.519531 15.21875 L 104.519531 11.230469 L 88.664062 11.230469 L 88.664062 17.933594 M 69.558594 17.933594 L 69.558594 24.273438 L 73.523438 24.273438 L 73.523438 14.855469 L 84.335938 14.855469 L 84.335938 11.59375 L 69.558594 11.59375 L 69.558594 17.933594 M 89.023438 17.933594 L 89.023438 24.273438 L 93.347656 24.273438 L 93.347656 14.855469 L 104.160156 14.855469 L 104.160156 11.59375 L 89.023438 11.59375 L 89.023438 17.933594 M 54.875 12.410156 C 54.132812 12.648438 53.703125 13.023438 53.703125 13.429688 C 53.703125 13.78125 53.417969 14.574219 53.070312 15.1875 C 52.53125 16.140625 52.234375 16.300781 51 16.296875 C 48.878906 16.296875 45.808594 15.375 44.828125 14.449219 L 43.972656 13.640625 L 43.972656 15.105469 C 43.972656 17.042969 44.984375 18.28125 47.128906 18.976562 C 49.601562 19.773438 52.261719 20.101562 52.261719 19.605469 C 52.261719 19.382812 52.503906 19.203125 52.800781 19.203125 C 53.097656 19.203125 53.339844 19.449219 53.339844 19.746094 C 53.339844 20.121094 53.707031 20.289062 54.511719 20.28125 C 56.347656 20.269531 60.324219 19.339844 60.476562 18.886719 C 60.550781 18.660156 60.921875 18.476562 61.300781 18.476562 C 62.761719 18.476562 63.4375 17.21875 63.390625 14.582031 C 63.367188 13.238281 63.269531 12.464844 63.167969 12.863281 C 62.949219 13.757812 62.441406 14.105469 61.269531 14.167969 C 60.65625 14.199219 60.570312 14.265625 61 14.378906 C 61.851562 14.605469 61.9375 18.117188 61.089844 18.117188 C 60.792969 18.117188 60.550781 17.800781 60.550781 17.414062 C 60.550781 16.617188 60.40625 16.5 59.019531 16.167969 C 58.300781 15.992188 58.027344 16.066406 58.027344 16.429688 C 58.027344 16.871094 55.957031 17.390625 54.191406 17.390625 C 53.425781 17.390625 53.617188 16.40625 54.503906 15.78125 C 55.160156 15.316406 55.195312 15.21875 54.683594 15.21875 C 54.226562 15.21875 54.0625 14.914062 54.0625 14.085938 C 54.0625 13.019531 54.128906 12.964844 55.144531 13.171875 C 56.054688 13.351562 56.226562 13.273438 56.226562 12.671875 C 56.226562 12.277344 56.183594 11.972656 56.136719 11.992188 C 56.085938 12.015625 55.515625 12.199219 54.875 12.410156 M 54.421875 14.082031 C 54.421875 14.671875 54.804688 14.878906 56.496094 15.21875 C 60.414062 16.007812 60.695312 16.125 60.953125 17.050781 C 61.148438 17.75 61.207031 17.617188 61.234375 16.417969 L 61.269531 14.90625 L 58.476562 14.304688 C 56.941406 13.976562 55.402344 13.628906 55.054688 13.53125 C 54.605469 13.40625 54.421875 13.566406 54.421875 14.082031 M 54.273438 16.53125 C 54.085938 17.027344 54.234375 17.085938 55.183594 16.894531 C 55.804688 16.769531 56.660156 16.648438 57.082031 16.625 C 57.648438 16.59375 57.566406 16.507812 56.765625 16.304688 C 55.023438 15.859375 54.515625 15.90625 54.273438 16.53125 M 109.207031 17.226562 C 109.207031 19.292969 112.753906 23.09375 115.597656 24.066406 C 117.472656 24.707031 122.042969 24.824219 123.996094 24.277344 C 125.875 23.753906 128.667969 21.859375 128.667969 21.113281 C 128.667969 20.371094 126.464844 18.476562 125.597656 18.476562 C 125.277344 18.476562 124.289062 18.90625 123.402344 19.425781 C 120.523438 21.121094 116.367188 20.191406 114.953125 17.535156 C 114.53125 16.738281 114.265625 16.667969 111.847656 16.667969 C 109.710938 16.667969 109.207031 16.773438 109.207031 17.226562 M 109.769531 17.84375 C 110.375 19.800781 113.023438 22.464844 115.488281 23.589844 C 117.574219 24.542969 122.511719 24.519531 124.640625 23.546875 C 126.382812 22.753906 128.308594 21.457031 128.308594 21.082031 C 128.308594 20.945312 127.726562 20.367188 127.011719 19.792969 L 125.71875 18.757812 L 123.785156 19.738281 C 121.246094 21.03125 118.777344 21.050781 116.648438 19.796875 C 115.8125 19.304688 114.902344 18.480469 114.628906 17.964844 C 114.171875 17.109375 113.933594 17.027344 111.824219 17.027344 C 109.597656 17.027344 109.527344 17.058594 109.769531 17.84375 "/>
<path style=" stroke:none;fill-rule:evenodd;fill:rgb(79.607844%,1.568628%,20.392157%);fill-opacity:1;" d="M 50.457031 0.679688 C 47.484375 1.65625 44.40625 4.269531 42.949219 7.050781 C 42.105469 8.65625 41.992188 9.289062 41.996094 12.320312 C 42 15.171875 42.140625 16.046875 42.824219 17.441406 C 44.03125 19.890625 45.792969 21.796875 47.984375 23.019531 C 49.785156 24.019531 50.179688 24.09375 53.703125 24.09375 C 57.011719 24.09375 57.703125 23.980469 59.222656 23.203125 C 61.226562 22.175781 63.375 19.964844 64.578125 17.699219 C 65.292969 16.351562 65.414062 15.597656 65.414062 12.5 C 65.414062 8.238281 64.785156 6.566406 62.171875 3.898438 C 59.855469 1.535156 57.75 0.632812 54.242188 0.496094 C 52.65625 0.433594 50.953125 0.515625 50.457031 0.679688 M 116.371094 1.226562 C 114.484375 1.902344 112.617188 3.136719 111.546875 4.417969 C 110.550781 5.605469 109.207031 8.058594 109.207031 8.679688 C 109.207031 8.898438 110.089844 9.058594 111.300781 9.058594 C 113.371094 9.058594 113.40625 9.039062 114.535156 7.425781 C 115.167969 6.527344 116.210938 5.46875 116.859375 5.074219 C 118.878906 3.835938 122.1875 4.234375 124.5625 6.007812 L 125.679688 6.839844 L 128.34375 4.097656 L 127.023438 3.085938 C 124.167969 0.894531 119.539062 0.0859375 116.371094 1.226562 M 159.867188 1.132812 C 157.117188 1.78125 154.644531 4.664062 154.628906 7.246094 C 154.605469 10.910156 156.8125 12.949219 162.121094 14.164062 C 164.042969 14.601562 166.21875 15.265625 166.957031 15.636719 C 169.359375 16.84375 169.175781 19.472656 166.625 20.304688 C 164.921875 20.863281 164.722656 21.160156 164.714844 23.128906 L 164.710938 24.703125 L 166.242188 24.460938 C 168.347656 24.128906 170.835938 22.847656 171.703125 21.644531 C 172.191406 20.96875 172.472656 19.886719 172.574219 18.304688 C 172.703125 16.292969 172.59375 15.746094 171.808594 14.394531 C 170.652344 12.414062 168.378906 11.140625 164.605469 10.367188 C 160.644531 9.554688 158.945312 8.5625 158.945312 7.066406 C 158.945312 5.992188 160.019531 5.085938 161.601562 4.828125 L 162.910156 4.613281 L 162.910156 2.671875 C 162.910156 0.496094 162.800781 0.441406 159.867188 1.132812 M 1.460938 2.582031 L 2.652344 4.167969 L 6.304688 4.171875 C 9.15625 4.175781 10.167969 4.316406 10.910156 4.804688 C 12.21875 5.664062 12.804688 7.734375 12.285156 9.667969 C 11.671875 11.960938 10.875 12.285156 5.234375 12.558594 L 0.359375 12.792969 L 0.359375 24.273438 L 4.324219 24.273438 L 4.324219 15.578125 L 7.144531 15.578125 C 10.777344 15.578125 13.214844 14.84375 14.703125 13.300781 C 17.765625 10.125 17.039062 4.226562 13.335938 2.1875 C 11.847656 1.367188 11.246094 1.28125 5.992188 1.144531 L 0.269531 1 L 1.460938 2.582031 M 22.878906 2.703125 C 23.863281 3.574219 24.808594 4.203125 24.980469 4.097656 C 25.148438 3.992188 26.519531 4.023438 28.027344 4.164062 C 30.367188 4.382812 30.914062 4.570312 31.78125 5.445312 C 32.867188 6.535156 33.113281 8.175781 32.453125 9.921875 C 31.832031 11.558594 30.429688 11.957031 25.246094 11.957031 L 20.542969 11.957031 L 20.542969 14.855469 L 27.054688 14.855469 L 30.121094 19.566406 L 33.1875 24.273438 L 37.851562 24.273438 L 36.996094 22.917969 C 36.527344 22.167969 35.15625 20.019531 33.953125 18.136719 L 31.765625 14.71875 L 33.09375 14.105469 C 33.824219 13.773438 34.902344 12.980469 35.488281 12.351562 C 36.421875 11.355469 36.578125 10.882812 36.703125 8.675781 C 36.871094 5.703125 36.429688 4.40625 34.765625 2.933594 C 33.1875 1.542969 30.867188 1.082031 25.480469 1.101562 L 21.085938 1.113281 L 22.878906 2.703125 M 71.003906 2.898438 L 72.511719 4.710938 L 85.417969 4.710938 L 85.417969 1.085938 L 69.492188 1.085938 L 71.003906 2.898438 M 89.949219 1.902344 C 90.320312 2.351562 91.023438 3.164062 91.511719 3.714844 L 92.402344 4.710938 L 105.242188 4.710938 L 105.242188 1.085938 L 89.273438 1.085938 L 89.949219 1.902344 M 132.273438 9.289062 C 132.273438 18.1875 132.46875 19.484375 134.125 21.503906 C 135.800781 23.550781 137.734375 24.273438 141.507812 24.273438 C 144.28125 24.273438 145.019531 24.140625 146.644531 23.324219 C 148.6875 22.300781 150.117188 20.539062 150.511719 18.5625 L 150.746094 17.390625 L 148.738281 17.390625 C 146.910156 17.390625 146.675781 17.484375 146.121094 18.429688 C 145.234375 19.933594 143.796875 20.652344 141.660156 20.652344 C 139.378906 20.652344 137.890625 19.917969 137.054688 18.382812 C 136.511719 17.382812 136.402344 16.027344 136.304688 9.148438 L 136.1875 1.085938 L 132.273438 1.085938 L 132.273438 9.289062 M 54.785156 6.140625 C 54.785156 8.519531 54.90625 9.421875 55.234375 9.425781 C 55.480469 9.425781 56.300781 9.53125 57.050781 9.65625 L 58.414062 9.882812 L 58.3125 6.480469 L 58.207031 3.078125 L 54.785156 2.859375 L 54.785156 6.140625 M 50.355469 5.296875 C 50.011719 5.640625 50.023438 9.339844 50.367188 9.519531 C 50.515625 9.597656 51.417969 9.589844 52.367188 9.503906 L 54.097656 9.34375 L 53.988281 7.300781 L 53.882812 5.253906 L 52.246094 5.144531 C 51.347656 5.085938 50.496094 5.15625 50.355469 5.296875 M 45.773438 8.898438 C 45.773438 10.394531 45.890625 10.851562 46.222656 10.679688 C 46.472656 10.550781 46.269531 10.78125 45.773438 11.191406 C 45.277344 11.605469 44.777344 11.945312 44.660156 11.949219 C 44.226562 11.964844 43.609375 13.847656 43.617188 15.144531 C 43.628906 18.007812 45.144531 19.210938 49.753906 20.003906 C 51.929688 20.378906 52.351562 20.367188 52.636719 19.914062 C 52.914062 19.472656 52.972656 19.488281 52.976562 20.019531 C 52.980469 20.492188 53.277344 20.652344 54.152344 20.648438 C 56.253906 20.644531 59.988281 19.894531 60.574219 19.363281 C 60.890625 19.074219 61.386719 18.839844 61.683594 18.839844 C 61.976562 18.839844 62.570312 18.507812 63.003906 18.101562 C 63.660156 17.488281 63.792969 16.964844 63.792969 15 C 63.792969 13.699219 63.625 12.320312 63.421875 11.9375 C 62.980469 11.105469 61.035156 10.023438 60.539062 10.332031 C 60.347656 10.453125 58.609375 10.359375 56.675781 10.128906 C 54.28125 9.84375 52.371094 9.820312 50.671875 10.054688 C 48.703125 10.328125 48.308594 10.308594 48.78125 9.960938 C 49.144531 9.691406 49.378906 9.011719 49.378906 8.203125 L 49.378906 6.882812 L 45.773438 6.882812 L 45.773438 8.898438 M 49.738281 11.121094 C 47.953125 11.421875 45.457031 12.371094 45 12.921875 C 44.605469 13.402344 44.683594 13.617188 45.496094 14.320312 C 46.445312 15.140625 49.21875 15.941406 51.121094 15.941406 C 52.1875 15.941406 53.339844 14.46875 53.339844 13.113281 C 53.339844 12.546875 53.734375 12.285156 55.125 11.925781 C 56.105469 11.671875 56.828125 11.332031 56.726562 11.167969 C 56.542969 10.871094 51.433594 10.835938 49.738281 11.121094 M 58.476562 11.871094 C 57.4375 12.175781 56.585938 12.539062 56.585938 12.683594 C 56.585938 12.972656 60.199219 13.769531 61.523438 13.769531 C 62.742188 13.769531 63.015625 12.71875 62.011719 11.898438 C 61.066406 11.128906 61.003906 11.128906 58.476562 11.871094 M 69.558594 17.933594 L 69.558594 24.273438 L 73.523438 24.273438 L 73.523438 14.855469 L 84.335938 14.855469 L 84.335938 11.59375 L 69.558594 11.59375 L 69.558594 17.933594 M 89.023438 17.933594 L 89.023438 24.273438 L 93.347656 24.273438 L 93.347656 14.855469 L 104.160156 14.855469 L 104.160156 11.59375 L 89.023438 11.59375 L 89.023438 17.933594 M 54.421875 14.082031 C 54.421875 14.671875 54.804688 14.878906 56.496094 15.21875 C 60.414062 16.007812 60.695312 16.125 60.953125 17.050781 C 61.148438 17.75 61.207031 17.617188 61.234375 16.417969 L 61.269531 14.90625 L 58.476562 14.304688 C 56.941406 13.976562 55.402344 13.628906 55.054688 13.53125 C 54.605469 13.40625 54.421875 13.566406 54.421875 14.082031 M 54.273438 16.53125 C 54.085938 17.027344 54.234375 17.085938 55.183594 16.894531 C 55.804688 16.769531 56.660156 16.648438 57.082031 16.625 C 57.648438 16.59375 57.566406 16.507812 56.765625 16.304688 C 55.023438 15.859375 54.515625 15.90625 54.273438 16.53125 M 109.769531 17.84375 C 110.375 19.800781 113.023438 22.464844 115.488281 23.589844 C 117.574219 24.542969 122.511719 24.519531 124.640625 23.546875 C 126.382812 22.753906 128.308594 21.457031 128.308594 21.082031 C 128.308594 20.945312 127.726562 20.367188 127.011719 19.792969 L 125.71875 18.757812 L 123.785156 19.738281 C 121.246094 21.03125 118.777344 21.050781 116.648438 19.796875 C 115.8125 19.304688 114.902344 18.480469 114.628906 17.964844 C 114.171875 17.109375 113.933594 17.027344 111.824219 17.027344 C 109.597656 17.027344 109.527344 17.058594 109.769531 17.84375 "/>
</g>
</svg>
